<svg width="44" height="44" viewBox="0 0 44 44" fill="none" xmlns="http://www.w3.org/2000/svg">
<g clip-path="url(#clip0_1414_8800)">
<path d="M5.49995 1.71924C4.4997 1.71924 3.54042 2.11658 2.83314 2.82387C2.12586 3.53115 1.72852 4.49042 1.72852 5.49067V38.4907C1.72852 39.4909 2.12586 40.4502 2.83314 41.1575C3.54042 41.8648 4.4997 42.2621 5.49995 42.2621H38.4999C39.5002 42.2621 40.4595 41.8648 41.1667 41.1575C41.874 40.4502 42.2714 39.4909 42.2714 38.4907V5.5001C42.2714 4.49985 41.874 3.54057 41.1667 2.83329C40.4595 2.12601 39.5002 1.72867 38.4999 1.72867L5.49995 1.71924Z" fill="white"/>
<path d="M29.8571 27.632V17.028C29.9792 16.071 29.899 15.099 29.6218 14.1748C29.3446 13.2507 28.8766 12.395 28.248 11.6631C27.3604 10.9353 26.3373 10.3909 25.2378 10.0613C24.1384 9.73163 22.9844 9.62341 21.8429 9.74286C19.3848 9.64318 16.9443 10.1985 14.7714 11.352C13.9692 11.7541 13.2844 12.3565 12.7833 13.1009C12.2823 13.8454 11.9819 14.7066 11.9114 15.6011V17.336H17.2386V15.2837C17.4177 12.1409 18.6246 10.8146 21.2174 10.8146C24.1686 10.8146 25.0171 12.2006 25.0171 16.8049V19.712C22.4843 19.8256 19.9633 20.1249 17.4743 20.6077C12.87 21.5914 10.56 23.914 10.56 27.6257C10.5101 28.5091 10.6523 29.3928 10.9768 30.216C11.3013 31.0391 11.8003 31.7822 12.4396 32.3939C13.0788 33.0057 13.843 33.4716 14.6797 33.7596C15.5163 34.0476 16.4054 34.1509 17.2857 34.0623C18.7688 34.0452 20.2309 33.7091 21.5725 33.0768C22.9142 32.4445 24.104 31.5308 25.0611 30.3977V30.5674V31.8591V34.2571L33.4746 32.7517V31.8089C30.602 31.7209 29.8571 30.9226 29.8571 27.632ZM25.0171 23.6909C25.1554 25.5688 24.8496 27.453 24.1246 29.1909C23.6784 30.0841 22.9975 30.839 22.1547 31.3744C21.312 31.9098 20.3393 32.2056 19.3411 32.23C17.1411 32.23 15.6766 30.1714 15.6766 27.1763C15.5966 26.1388 15.8263 25.1009 16.3365 24.194C16.8467 23.2871 17.6146 22.552 18.5429 22.0817C20.5897 21.2068 22.7912 20.7516 25.0171 20.7429V23.6909ZM38.5 0H5.5C4.04131 0 2.64236 0.579463 1.61091 1.61091C0.579463 2.64236 0 4.04131 0 5.5L0 38.5C0 39.9587 0.579463 41.3576 1.61091 42.3891C2.64236 43.4205 4.04131 44 5.5 44H38.5C39.9581 44 41.3566 43.421 42.388 42.3902C43.4193 41.3594 43.9992 39.9613 44 38.5031V5.5C44 4.04131 43.4205 2.64236 42.3891 1.61091C41.3576 0.579463 39.9587 0 38.5 0V0ZM41.1714 38.3429C41.1714 39.093 40.8734 39.8125 40.343 40.343C39.8125 40.8734 39.093 41.1714 38.3429 41.1714H5.65714C4.90696 41.1714 4.1875 40.8734 3.65704 40.343C3.12658 39.8125 2.82857 39.093 2.82857 38.3429V5.65714C2.82857 4.90696 3.12658 4.1875 3.65704 3.65704C4.1875 3.12658 4.90696 2.82857 5.65714 2.82857H38.3429C39.093 2.82857 39.8125 3.12658 40.343 3.65704C40.8734 4.1875 41.1714 4.90696 41.1714 5.65714V38.3429Z" fill="#CC0000"/>
</g>
<defs>
<clipPath id="clip0_1414_8800">
<rect width="44" height="44" fill="white"/>
</clipPath>
</defs>
</svg>
