<svg preserveAspectRatio="none" width="100%" height="100%" overflow="visible" style="display: block;" viewBox="0 0 262 192.429" fill="none" xmlns="http://www.w3.org/2000/svg">
<g id="Group 9" opacity="0.2">
<path id="Ellipse 1" d="M262 88.8136C262 137.864 225.734 177.627 131 177.627C36.2655 177.627 0 137.864 0 88.8136C0 39.7632 58.6507 1.89245e-06 131 1.89245e-06C203.349 1.89245e-06 262 39.7632 262 88.8136Z" fill="var(--fill-0, white)"/>
<path id="Subtract" d="M45.8869 14.8023C79.4046 14.8023 106.576 54.5654 106.576 103.616C106.576 152.666 79.4047 192.429 45.8869 192.429C41.9784 192.429 38.1562 191.888 34.4533 190.855C53.6101 183.028 68.091 146.946 68.091 103.616C68.091 60.2855 53.6103 24.202 34.4533 16.3755C38.1561 15.3424 41.9785 14.8023 45.8869 14.8023Z" fill="var(--fill-0, white)"/>
</g>
</svg>
