<svg preserveAspectRatio="none" width="100%" height="100%" overflow="visible" style="display: block;" viewBox="0 0 560.954 412" fill="none" xmlns="http://www.w3.org/2000/svg">
<path id="Union" opacity="0.4" d="M280.478 0C435.381 0.000135189 560.954 85.1352 560.954 190.154C560.954 295.173 483.308 380.308 280.478 380.308C242.048 380.308 208.111 377.251 178.346 371.582C156.275 396.902 128.466 412 98.2471 412C89.8786 412 81.6949 410.841 73.7666 408.629C91.7767 401.27 107.855 382.246 120.227 355.367C35.2326 322.614 9.40687e-05 260.896 0 190.154C0 133.837 36.111 83.2384 93.4912 48.4199C87.265 42.4024 80.6577 37.878 73.7666 35.0625C81.6948 32.8506 89.8787 31.6924 98.2471 31.6924C105.579 31.6924 112.769 32.5822 119.77 34.29C165.282 12.6805 220.696 0 280.478 0Z" fill="url(#paint0_linear_0_37)"/>
<defs>
<linearGradient id="paint0_linear_0_37" x1="389.5" y1="129.5" x2="45.5" y2="412" gradientUnits="userSpaceOnUse">
<stop stop-color="white"/>
<stop offset="1" stop-color="white" stop-opacity="0.3"/>
</linearGradient>
</defs>
</svg>
