<svg preserveAspectRatio="none" width="100%" height="100%" overflow="visible" style="display: block;" viewBox="0 0 177 130" fill="none" xmlns="http://www.w3.org/2000/svg">
<g id="Group 9" opacity="0.2">
<path id="Ellipse 1" d="M177 60C177 93.1371 152.5 120 88.5 120C24.5 120 0 93.1371 0 60C0 26.8629 39.6228 0 88.5 0C137.377 0 177 26.8629 177 60Z" fill="var(--fill-0, white)"/>
<path id="Subtract" d="M31 10C53.6437 10 72 36.8629 72 70C72 103.137 53.6437 130 31 130C28.3597 130 25.7778 129.634 23.2764 128.937C36.2178 123.648 46 99.2721 46 70C46 40.7277 36.218 16.3503 23.2764 11.0625C25.7777 10.3647 28.3598 10 31 10Z" fill="var(--fill-0, white)"/>
</g>
</svg>
